<?xml version="1.0" standalone="no"?>
<!DOCTYPE svg PUBLIC "-//W3C//DTD SVG 20010904//EN"
 "http://www.w3.org/TR/2001/REC-SVG-20010904/DTD/svg10.dtd">
<svg version="1.0" xmlns="http://www.w3.org/2000/svg"
 width="112.000000pt" height="113.000000pt" viewBox="0 0 112.000000 113.000000"
 preserveAspectRatio="xMidYMid meet">

<g transform="translate(0.000000,113.000000) scale(0.100000,-0.100000)"
fill="#000000" stroke="none">
<path d="M41 1048 c-6 -31 -9 -68 -5 -82 6 -25 8 -26 91 -26 l85 0 -7 -42 c-7
-44 -39 -158 -98 -354 -43 -140 -41 -144 57 -144 l73 0 16 53 c9 28 37 129 62
222 25 94 53 192 62 218 l15 48 93 -7 93 -6 18 55 c10 32 14 65 10 81 l-6 26
-154 0 c-84 0 -207 3 -273 6 l-119 7 -13 -55z"/>
<path d="M420 868 c-62 -67 -20 -155 63 -131 45 12 49 36 5 28 -25 -5 -38 -2
-47 9 -20 24 -4 36 45 36 l45 0 -3 38 c-3 36 -4 37 -45 40 -32 2 -46 -2 -63
-20z m75 -18 c0 -9 -11 -16 -27 -18 -30 -4 -36 6 -16 26 16 16 43 11 43 -8z"/>
<path d="M610 883 c-8 -3 -25 -15 -37 -26 -27 -24 -32 -97 -9 -116 21 -17 90
-10 94 10 2 12 -5 14 -33 11 -34 -4 -35 -3 -35 30 0 44 29 73 64 64 25 -6 44
8 26 19 -16 10 -53 14 -70 8z"/>
<path d="M696 809 c-20 -84 -20 -79 3 -79 15 0 22 12 31 50 12 52 32 76 51 65
11 -7 8 -40 -7 -92 -5 -19 -2 -23 15 -23 24 0 34 30 35 100 l1 45 -57 1 -57 2
-15 -69z"/>
<path d="M901 866 c-70 -39 -63 -146 9 -146 43 0 80 37 87 86 4 35 2 44 -18
58 -28 19 -46 20 -78 2z m57 -44 c5 -31 -23 -72 -48 -72 -25 0 -26 29 -4 71
18 35 47 36 52 1z"/>
<path d="M335 568 c-16 -62 -55 -201 -87 -308 -32 -108 -56 -205 -53 -217 4
-18 13 -22 64 -25 32 -1 66 -2 74 0 10 2 27 38 47 101 l32 99 87 4 c69 3 99
10 143 31 174 85 231 312 99 390 -36 21 -159 37 -287 37 l-92 0 -27 -112z
m269 -42 c24 -10 35 -22 39 -42 7 -38 -23 -107 -56 -129 -26 -16 -119 -26
-132 -13 -8 7 33 167 48 186 13 16 60 15 101 -2z"/>
<path d="M601 120 c-13 -50 -21 -93 -18 -97 17 -17 36 14 56 91 25 103 25 96
3 96 -14 0 -22 -19 -41 -90z"/>
<path d="M429 106 c-17 -77 -11 -86 53 -83 51 2 53 3 64 37 6 19 14 50 17 68
5 27 3 32 -12 32 -14 0 -22 -13 -33 -52 -12 -42 -19 -54 -38 -56 -24 -4 -25 2
-4 82 5 22 3 26 -14 26 -17 0 -23 -10 -33 -54z"/>
<path d="M686 134 c-25 -25 -19 -51 14 -63 17 -5 30 -14 30 -20 0 -16 -38 -23
-60 -11 -16 8 -20 8 -20 -4 0 -28 62 -35 98 -10 32 22 28 53 -8 67 -39 15 -33
32 10 33 19 0 35 5 38 12 6 19 -83 15 -102 -4z"/>
<path d="M827 144 c-15 -16 -6 -23 22 -18 17 4 32 1 36 -6 10 -16 -12 -30 -47
-30 -32 0 -62 -38 -52 -64 5 -13 18 -16 62 -14 l56 3 15 48 c19 61 9 81 -45
85 -22 2 -43 0 -47 -4z m53 -78 c0 -18 -15 -36 -29 -36 -23 0 -31 9 -24 26 4
12 53 21 53 10z"/>
<path d="M961 77 c-18 -59 -15 -87 7 -73 6 3 16 23 23 44 15 47 25 60 51 64
42 6 29 25 -17 26 l-45 0 -19 -61z"/>
</g>
</svg>
